
		<svg xmlns="http://www.w3.org/2000/svg" xmlns:xlink="http://www.w3.org/1999/xlink" version="1.1" width="3214.285714285714" height="2175">
			<rect fill="#0c314e" width="3214.285714285714" height="2175"/>
			<g transform="scale(10.714285714285714) translate(10, 10)">
				<defs id="SvgjsDefs1162"/><g id="main_text" rel="mainfill" name="main_text" feature="main_text" xmlns:name="mainText_mainfill" groupName="main_text" fill="#fff" transform="translate(-2.7982809764265757, 125.3633292621359) scale(1.7273343123042546)"><path d="M12.18 12.18 c0.7 0.44 1.2 1.06 1.52 1.84 c0.2 0.46 0.28 1 0.28 1.58 c0 1.94 -1.06 3.28 -3.06 3.92 c-0.64 0.22 -1.38 0.32 -2.22 0.32 l-6.38 0 c-0.38 0 -0.7 -0.32 -0.7 -0.7 l0 -1.44 c0 -0.4 0.32 -0.72 0.7 -0.72 l6.54 0 c0.76 0 1.34 -0.14 1.72 -0.42 c0.32 -0.26 0.48 -0.6 0.48 -1.08 s-0.16 -0.84 -0.5 -1.14 c-0.42 -0.36 -1.04 -0.54 -1.86 -0.54 l-6.38 0 c-0.38 0 -0.7 -0.32 -0.7 -0.72 l0 -1.38 c0 -0.38 0.32 -0.7 0.7 -0.7 l6.02 0 c1.28 0 1.68 -0.5 1.88 -0.88 c0.1 -0.2 0.14 -0.42 0.14 -0.66 c0 -0.26 -0.04 -0.48 -0.1 -0.66 s-0.16 -0.32 -0.28 -0.44 c-0.32 -0.36 -0.8 -0.5 -1.46 -0.5 l-6.2 0 c-0.38 0 -0.7 -0.32 -0.7 -0.72 l0 -1.44 c0 -0.38 0.32 -0.7 0.7 -0.7 l6.02 0 c1.64 0 2.92 0.46 3.82 1.4 c0.74 0.74 1.14 1.7 1.14 2.86 c0 1.22 -0.38 2.2 -1.12 2.92 z M28.26 5 c0.38 0 0.7 0.32 0.7 0.7 l0 7.56 c0 1.94 -0.6 3.54 -1.78 4.76 c-1.18 1.2 -2.72 1.82 -4.58 1.82 s-3.38 -0.62 -4.56 -1.82 c-1.18 -1.22 -1.78 -2.82 -1.78 -4.76 l0 -7.56 c0 -0.38 0.32 -0.7 0.7 -0.7 l1.5 0 c0.38 0 0.7 0.32 0.7 0.7 l0 7.6 c0 1.24 0.34 2.18 1.06 2.84 c0.6 0.56 1.38 0.84 2.38 0.84 c0.98 0 1.78 -0.28 2.4 -0.84 c0.7 -0.66 1.06 -1.58 1.06 -2.84 l0 -7.6 c0 -0.38 0.3 -0.7 0.68 -0.7 l1.52 0 z M34.24 5 c0.38 0 0.7 0.32 0.7 0.7 l0 13.28 c0 0.38 -0.32 0.7 -0.7 0.7 l-1.5 0 c-0.38 0 -0.7 -0.32 -0.7 -0.7 l0 -13.28 c0 -0.38 0.32 -0.7 0.7 -0.7 l1.5 0 z M47.620000000000005 16.84 c0.4 0 0.7 0.32 0.7 0.7 l0 1.44 c0 0.38 -0.3 0.7 -0.7 0.7 l-8.74 0 c-0.38 0 -0.7 -0.32 -0.7 -0.7 l0 -13.28 c0 -0.38 0.32 -0.7 0.7 -0.7 l1.5 0 c0.38 0 0.7 0.32 0.7 0.7 l0 11.14 l6.54 0 z M59.1 5.5 c0.82 0.34 1.56 0.84 2.18 1.48 c1.38 1.4 2.08 3.2 2.08 5.36 s-0.7 3.96 -2.08 5.36 c-0.62 0.64 -1.36 1.14 -2.18 1.48 s-1.66 0.5 -2.54 0.5 l-5.6 0 c-0.38 0 -0.7 -0.32 -0.7 -0.7 l0 -13.28 c0 -0.38 0.32 -0.7 0.7 -0.7 l5.6 0 c0.88 0 1.74 0.18 2.54 0.5 z M53.16 7.82 l0 9.04 l3.34 0 c1.18 0 2.12 -0.42 2.86 -1.3 c0.74 -0.86 1.1 -1.92 1.1 -3.22 s-0.36 -2.36 -1.1 -3.22 c-0.74 -0.88 -1.68 -1.3 -2.86 -1.3 l-3.34 0 z  M77.34 5.42 l5.6 13.22 c0.06 0.1 0.1 0.22 0.1 0.34 c0 0.38 -0.3 0.7 -0.7 0.7 l0 0 l-1.66 0 c-0.28 0 -0.54 -0.16 -0.64 -0.42 l-1.46 -3.44 l-5.66 0 l-1.44 3.44 c-0.1 0.26 -0.36 0.42 -0.64 0.42 l-1.66 0 c-0.24 0 -0.46 -0.12 -0.58 -0.32 c-0.14 -0.18 -0.16 -0.44 -0.06 -0.64 l5.64 -13.3 c0.1 -0.26 0.36 -0.42 0.64 -0.42 l1.88 0 c0.28 0 0.54 0.16 0.64 0.42 z M75.76 9.06 l-1.66 3.98 l3.32 0 z M96.92 5 c0.38 0 0.7 0.32 0.7 0.7 l0 13.28 c0 0.38 -0.32 0.7 -0.7 0.7 l-1.76 0 c-0.22 0 -0.42 -0.1 -0.56 -0.28 l-6.94 -9.5 l0 9.08 c0 0.38 -0.32 0.7 -0.7 0.7 l-1.5 0 c-0.38 0 -0.7 -0.32 -0.7 -0.7 l0 -13.28 c0 -0.38 0.32 -0.7 0.7 -0.7 l1.74 0 c0.22 0 0.44 0.1 0.56 0.28 l6.96 9.46 l0 -9.04 c0 -0.38 0.3 -0.7 0.68 -0.7 l1.52 0 z M109.70000000000002 5.5 c0.82 0.34 1.56 0.84 2.18 1.48 c1.38 1.4 2.08 3.2 2.08 5.36 s-0.7 3.96 -2.08 5.36 c-0.62 0.64 -1.36 1.14 -2.18 1.48 s-1.66 0.5 -2.54 0.5 l-5.6 0 c-0.38 0 -0.7 -0.32 -0.7 -0.7 l0 -13.28 c0 -0.38 0.32 -0.7 0.7 -0.7 l5.6 0 c0.88 0 1.74 0.18 2.54 0.5 z M103.76 7.82 l0 9.04 l3.34 0 c1.18 0 2.12 -0.42 2.86 -1.3 c0.74 -0.86 1.1 -1.92 1.1 -3.22 s-0.36 -2.36 -1.1 -3.22 c-0.74 -0.88 -1.68 -1.3 -2.86 -1.3 l-3.34 0 z  M130.06 14.1 l3.02 4.62 c0.14 0.22 0.16 0.48 0.02 0.72 c-0.12 0.22 -0.36 0.36 -0.6 0.36 l-1.82 0 c-0.24 0 -0.46 -0.12 -0.58 -0.32 l-3.04 -4.82 l-3.56 0 l0 4.44 c0 0.38 -0.32 0.7 -0.7 0.7 l-1.52 0 c-0.38 0 -0.7 -0.32 -0.7 -0.7 l0 -6.58 c0 -0.38 0.32 -0.7 0.7 -0.7 l6.16 0 c1.16 0 1.94 -0.32 2.34 -1 c0.14 -0.22 0.2 -0.54 0.2 -0.92 c0 -0.66 -0.2 -1.12 -0.62 -1.48 c-0.44 -0.4 -1.06 -0.58 -1.84 -0.58 l-6.24 0 c-0.38 0 -0.7 -0.32 -0.7 -0.7 l0 -1.44 c0 -0.38 0.32 -0.7 0.7 -0.7 l6.42 0 c1.54 0 2.8 0.44 3.74 1.32 c0.98 0.88 1.46 2.08 1.46 3.58 c0 1.94 -0.86 3.34 -2.5 4.06 c-0.1 0.04 -0.22 0.1 -0.34 0.14 z M147.34 5 c0.38 0 0.7 0.32 0.7 0.7 l0 7.56 c0 1.94 -0.6 3.54 -1.78 4.76 c-1.18 1.2 -2.72 1.82 -4.58 1.82 s-3.38 -0.62 -4.56 -1.82 c-1.18 -1.22 -1.78 -2.82 -1.78 -4.76 l0 -7.56 c0 -0.38 0.32 -0.7 0.7 -0.7 l1.5 0 c0.38 0 0.7 0.32 0.7 0.7 l0 7.6 c0 1.24 0.34 2.18 1.06 2.84 c0.6 0.56 1.38 0.84 2.38 0.84 c0.98 0 1.78 -0.28 2.4 -0.84 c0.7 -0.66 1.06 -1.58 1.06 -2.84 l0 -7.6 c0 -0.38 0.3 -0.7 0.68 -0.7 l1.52 0 z M163.28 5 c0.38 0 0.7 0.32 0.7 0.7 l0 13.28 c0 0.38 -0.32 0.7 -0.7 0.7 l-1.76 0 c-0.22 0 -0.42 -0.1 -0.56 -0.28 l-6.94 -9.5 l0 9.08 c0 0.38 -0.32 0.7 -0.7 0.7 l-1.5 0 c-0.38 0 -0.7 -0.32 -0.7 -0.7 l0 -13.28 c0 -0.38 0.32 -0.7 0.7 -0.7 l1.74 0 c0.22 0 0.44 0.1 0.56 0.28 l6.96 9.46 l0 -9.04 c0 -0.38 0.3 -0.7 0.68 -0.7 l1.52 0 z"/></g><g id="slogan_text" rel="mainfill" name="slogan_text" feature="slogan_text" xmlns:name="sloganText_mainfill" groupName="slogan_text" fill="#bee42c" transform="translate(10.092800064086914, 172.20000106811523) scale(0.5599999999999999)"><path d="M3.82 5 c0.38 0 0.7 0.32 0.7 0.7 l0 13.28 c0 0.38 -0.32 0.7 -0.7 0.7 l-1.5 0 c-0.38 0 -0.7 -0.32 -0.7 -0.7 l0 -13.28 c0 -0.38 0.32 -0.7 0.7 -0.7 l1.5 0 z M24.035625 5 c0.38 0 0.7 0.32 0.7 0.7 l0 13.28 c0 0.38 -0.32 0.7 -0.7 0.7 l-1.76 0 c-0.22 0 -0.42 -0.1 -0.56 -0.28 l-6.94 -9.5 l0 9.08 c0 0.38 -0.32 0.7 -0.7 0.7 l-1.5 0 c-0.38 0 -0.7 -0.32 -0.7 -0.7 l0 -13.28 c0 -0.38 0.32 -0.7 0.7 -0.7 l1.74 0 c0.22 0 0.44 0.1 0.56 0.28 l6.96 9.46 l0 -9.04 c0 -0.38 0.3 -0.7 0.68 -0.7 l1.52 0 z M42.37125 5 c0.4 0 0.7 0.32 0.7 0.7 l0 1.44 c0 0.38 -0.3 0.7 -0.7 0.7 l-7.38 0 l0 3.22 l6.5 0 c0.4 0 0.7 0.32 0.7 0.7 l0 1.46 c0 0.38 -0.3 0.7 -0.7 0.7 l-6.5 0 l0 5.06 c0 0.38 -0.32 0.7 -0.7 0.7 l-1.5 0 c-0.38 0 -0.7 -0.32 -0.7 -0.7 l0 -13.28 c0 -0.38 0.32 -0.7 0.7 -0.7 l9.58 0 z M58.706875000000004 14.02 l2.98 4.58 c0.14 0.22 0.14 0.5 0.02 0.72 s-0.36 0.36 -0.6 0.36 l-1.8 0 c-0.24 0 -0.46 -0.12 -0.58 -0.32 l-3 -4.78 l-3.54 0 l0 4.4 c0 0.38 -0.32 0.7 -0.7 0.7 l-1.5 0 c-0.38 0 -0.7 -0.32 -0.7 -0.7 l0 -13.28 c0 -0.38 0.32 -0.7 0.7 -0.7 l6.36 0 c1.52 0 2.78 0.44 3.72 1.3 c0.96 0.88 1.44 2.06 1.44 3.56 c0 1.92 -0.86 3.32 -2.48 4.02 c-0.1 0.06 -0.22 0.1 -0.32 0.14 z M52.186875 7.82 l0 3.94 l3.9 0 c1.16 0 1.92 -0.32 2.34 -0.98 c0.12 -0.22 0.2 -0.54 0.2 -0.92 c0 -0.66 -0.2 -1.12 -0.62 -1.48 c-0.46 -0.38 -1.06 -0.56 -1.84 -0.56 l-3.98 0 z M75.58250000000001 5.42 l5.6 13.22 c0.06 0.1 0.1 0.22 0.1 0.34 c0 0.38 -0.3 0.7 -0.7 0.7 l0 0 l-1.66 0 c-0.28 0 -0.54 -0.16 -0.64 -0.42 l-1.46 -3.44 l-5.66 0 l-1.44 3.44 c-0.1 0.26 -0.36 0.42 -0.64 0.42 l-1.66 0 c-0.24 0 -0.46 -0.12 -0.58 -0.32 c-0.14 -0.18 -0.16 -0.44 -0.06 -0.64 l5.64 -13.3 c0.1 -0.26 0.36 -0.42 0.64 -0.42 l1.88 0 c0.28 0 0.54 0.16 0.64 0.42 z M74.00250000000001 9.06 l-1.66 3.98 l3.32 0 z M96.81812500000001 12.42 c1.12 0.72 1.74 1.78 1.74 3.06 c0 1.48 -0.58 2.62 -1.7 3.42 c-1.04 0.72 -2.48 1.1 -4.26 1.1 c-2.02 0 -3.6 -0.44 -4.7 -1.32 c-1.02 -0.82 -1.6 -1.98 -1.74 -3.44 c-0.02 -0.2 0.04 -0.4 0.18 -0.54 s0.32 -0.22 0.52 -0.22 l1.56 0 c0.38 0 0.68 0.28 0.7 0.64 c0.04 0.68 0.34 1.16 0.98 1.54 c0.6 0.34 1.46 0.52 2.52 0.52 c3.04 0 3.04 -1.2 3.04 -1.64 c0 -0.32 -0.12 -0.52 -0.38 -0.7 c-0.38 -0.26 -0.88 -0.48 -1.48 -0.66 c-0.66 -0.2 -1.38 -0.38 -2.14 -0.56 c-0.82 -0.18 -1.6 -0.42 -2.3 -0.7 c-0.76 -0.32 -1.42 -0.72 -1.92 -1.24 c-0.58 -0.58 -0.88 -1.36 -0.88 -2.3 c0 -1.3 0.5 -2.38 1.5 -3.2 c0.96 -0.78 2.36 -1.18 4.2 -1.18 s3.3 0.44 4.36 1.32 c0.98 0.8 1.52 1.86 1.58 3.14 c0.02 0.18 -0.06 0.38 -0.18 0.52 c-0.14 0.12 -0.32 0.2 -0.5 0.2 l-1.56 0 c-0.34 0 -0.64 -0.26 -0.68 -0.6 c-0.06 -0.52 -0.3 -1.24 -1.62 -1.6 c-0.4 -0.12 -0.92 -0.18 -1.52 -0.18 s-1.1 0.06 -1.48 0.2 c-0.38 0.12 -0.66 0.26 -0.84 0.42 c-0.16 0.14 -0.26 0.28 -0.3 0.42 c-0.06 0.2 -0.1 0.42 -0.1 0.64 c0 0.04 0 0.16 0.18 0.34 c0.2 0.18 0.46 0.36 0.8 0.48 c0.4 0.18 0.86 0.32 1.38 0.44 c0.54 0.14 1.1 0.28 1.68 0.42 s1.16 0.3 1.72 0.48 c0.6 0.2 1.16 0.46 1.64 0.78 z  M115.13375000000002 5 c0.38 0 0.68 0.32 0.68 0.7 l0 1.44 c0 0.38 -0.3 0.7 -0.68 0.7 l-3.94 0 l0 11.14 c0 0.38 -0.32 0.7 -0.7 0.7 l-1.5 0 c-0.4 0 -0.7 -0.32 -0.7 -0.7 l0 -11.14 l-3.94 0 c-0.38 0 -0.7 -0.32 -0.7 -0.7 l0 -1.44 c0 -0.38 0.32 -0.7 0.7 -0.7 l10.78 0 z M131.24937500000001 14.02 l2.98 4.58 c0.14 0.22 0.14 0.5 0.02 0.72 s-0.36 0.36 -0.6 0.36 l-1.8 0 c-0.24 0 -0.46 -0.12 -0.58 -0.32 l-3 -4.78 l-3.54 0 l0 4.4 c0 0.38 -0.32 0.7 -0.7 0.7 l-1.5 0 c-0.38 0 -0.7 -0.32 -0.7 -0.7 l0 -13.28 c0 -0.38 0.32 -0.7 0.7 -0.7 l6.36 0 c1.52 0 2.78 0.44 3.72 1.3 c0.96 0.88 1.44 2.06 1.44 3.56 c0 1.92 -0.86 3.32 -2.48 4.02 c-0.1 0.06 -0.22 0.1 -0.32 0.14 z M124.72937500000002 7.82 l0 3.94 l3.9 0 c1.16 0 1.92 -0.32 2.34 -0.98 c0.12 -0.22 0.2 -0.54 0.2 -0.92 c0 -0.66 -0.2 -1.12 -0.62 -1.48 c-0.46 -0.38 -1.06 -0.56 -1.84 -0.56 l-3.98 0 z M152.60500000000005 5 c0.38 0 0.7 0.32 0.7 0.7 l0 7.56 c0 1.94 -0.6 3.54 -1.78 4.76 c-1.18 1.2 -2.72 1.82 -4.58 1.82 s-3.38 -0.62 -4.56 -1.82 c-1.18 -1.22 -1.78 -2.82 -1.78 -4.76 l0 -7.56 c0 -0.38 0.32 -0.7 0.7 -0.7 l1.5 0 c0.38 0 0.7 0.32 0.7 0.7 l0 7.6 c0 1.24 0.34 2.18 1.06 2.84 c0.6 0.56 1.38 0.84 2.38 0.84 c0.98 0 1.78 -0.28 2.4 -0.84 c0.7 -0.66 1.06 -1.58 1.06 -2.84 l0 -7.6 c0 -0.38 0.3 -0.7 0.68 -0.7 l1.52 0 z M165.02062500000002 8.22 c-0.52 0.22 -0.98 0.54 -1.34 0.96 c-0.76 0.84 -1.12 1.94 -1.12 3.32 s0.36 2.48 1.12 3.34 c0.78 0.88 1.9 1.3 3.44 1.3 c0.82 0 1.5 -0.2 2.1 -0.6 c0.62 -0.42 1.06 -0.94 1.36 -1.64 c0.1 -0.26 0.36 -0.42 0.64 -0.42 l1.58 0 c0.22 0 0.44 0.1 0.56 0.28 c0.14 0.2 0.18 0.42 0.1 0.64 c-0.5 1.4 -1.32 2.5 -2.44 3.3 c-1.2 0.86 -2.62 1.3 -4.24 1.3 c-2.14 0 -3.9 -0.74 -5.24 -2.22 c-1.24 -1.4 -1.88 -3.18 -1.88 -5.28 s0.64 -3.88 1.88 -5.28 c1.34 -1.48 3.1 -2.22 5.24 -2.22 c1.62 0 3.04 0.44 4.24 1.3 c1.12 0.8 1.94 1.92 2.44 3.3 c0.08 0.22 0.04 0.46 -0.1 0.64 c-0.12 0.18 -0.34 0.28 -0.56 0.28 l-1.58 0 c-0.28 0 -0.54 -0.16 -0.64 -0.42 c-0.3 -0.7 -0.74 -1.22 -1.36 -1.64 c-0.6 -0.4 -1.28 -0.6 -2.1 -0.6 c-0.86 0 -1.56 0.12 -2.1 0.36 z M190.01625 5 c0.38 0 0.68 0.32 0.68 0.7 l0 1.44 c0 0.38 -0.3 0.7 -0.68 0.7 l-3.94 0 l0 11.14 c0 0.38 -0.32 0.7 -0.7 0.7 l-1.5 0 c-0.4 0 -0.7 -0.32 -0.7 -0.7 l0 -11.14 l-3.94 0 c-0.38 0 -0.7 -0.32 -0.7 -0.7 l0 -1.44 c0 -0.38 0.32 -0.7 0.7 -0.7 l10.78 0 z M208.55187500000002 5 c0.38 0 0.7 0.32 0.7 0.7 l0 7.56 c0 1.94 -0.6 3.54 -1.78 4.76 c-1.18 1.2 -2.72 1.82 -4.58 1.82 s-3.38 -0.62 -4.56 -1.82 c-1.18 -1.22 -1.78 -2.82 -1.78 -4.76 l0 -7.56 c0 -0.38 0.32 -0.7 0.7 -0.7 l1.5 0 c0.38 0 0.7 0.32 0.7 0.7 l0 7.6 c0 1.24 0.34 2.18 1.06 2.84 c0.6 0.56 1.38 0.84 2.38 0.84 c0.98 0 1.78 -0.28 2.4 -0.84 c0.7 -0.66 1.06 -1.58 1.06 -2.84 l0 -7.6 c0 -0.38 0.3 -0.7 0.68 -0.7 l1.52 0 z M225.8675 14.02 l2.98 4.58 c0.14 0.22 0.14 0.5 0.02 0.72 s-0.36 0.36 -0.6 0.36 l-1.8 0 c-0.24 0 -0.46 -0.12 -0.58 -0.32 l-3 -4.78 l-3.54 0 l0 4.4 c0 0.38 -0.32 0.7 -0.7 0.7 l-1.5 0 c-0.38 0 -0.7 -0.32 -0.7 -0.7 l0 -13.28 c0 -0.38 0.32 -0.7 0.7 -0.7 l6.36 0 c1.52 0 2.78 0.44 3.72 1.3 c0.96 0.88 1.44 2.06 1.44 3.56 c0 1.92 -0.86 3.32 -2.48 4.02 c-0.1 0.06 -0.22 0.1 -0.32 0.14 z M219.34750000000003 7.82 l0 3.94 l3.9 0 c1.16 0 1.92 -0.32 2.34 -0.98 c0.12 -0.22 0.2 -0.54 0.2 -0.92 c0 -0.66 -0.2 -1.12 -0.62 -1.48 c-0.46 -0.38 -1.06 -0.56 -1.84 -0.56 l-3.98 0 z M245.84312500000001 5 c0.4 0 0.7 0.32 0.7 0.7 l0 1.44 c0 0.38 -0.3 0.7 -0.7 0.7 l-7.56 0 l0 3.06 l6.68 0 c0.4 0 0.7 0.32 0.7 0.7 l0 1.46 c0 0.38 -0.3 0.7 -0.7 0.7 l-6.68 0 l0 3.08 l7.56 0 c0.4 0 0.7 0.32 0.7 0.7 l0 1.44 c0 0.38 -0.3 0.7 -0.7 0.7 l-9.76 0 c-0.38 0 -0.7 -0.32 -0.7 -0.7 l0 -13.28 c0 -0.38 0.32 -0.7 0.7 -0.7 l9.76 0 z M262.77875 12.42 c1.12 0.72 1.74 1.78 1.74 3.06 c0 1.48 -0.58 2.62 -1.7 3.42 c-1.04 0.72 -2.48 1.1 -4.26 1.1 c-2.02 0 -3.6 -0.44 -4.7 -1.32 c-1.02 -0.82 -1.6 -1.98 -1.74 -3.44 c-0.02 -0.2 0.04 -0.4 0.18 -0.54 s0.32 -0.22 0.52 -0.22 l1.56 0 c0.38 0 0.68 0.28 0.7 0.64 c0.04 0.68 0.34 1.16 0.98 1.54 c0.6 0.34 1.46 0.52 2.52 0.52 c3.04 0 3.04 -1.2 3.04 -1.64 c0 -0.32 -0.12 -0.52 -0.38 -0.7 c-0.38 -0.26 -0.88 -0.48 -1.48 -0.66 c-0.66 -0.2 -1.38 -0.38 -2.14 -0.56 c-0.82 -0.18 -1.6 -0.42 -2.3 -0.7 c-0.76 -0.32 -1.42 -0.72 -1.92 -1.24 c-0.58 -0.58 -0.88 -1.36 -0.88 -2.3 c0 -1.3 0.5 -2.38 1.5 -3.2 c0.96 -0.78 2.36 -1.18 4.2 -1.18 s3.3 0.44 4.36 1.32 c0.98 0.8 1.52 1.86 1.58 3.14 c0.02 0.18 -0.06 0.38 -0.18 0.52 c-0.14 0.12 -0.32 0.2 -0.5 0.2 l-1.56 0 c-0.34 0 -0.64 -0.26 -0.68 -0.6 c-0.06 -0.52 -0.3 -1.24 -1.62 -1.6 c-0.4 -0.12 -0.92 -0.18 -1.52 -0.18 s-1.1 0.06 -1.48 0.2 c-0.38 0.12 -0.66 0.26 -0.84 0.42 c-0.16 0.14 -0.26 0.28 -0.3 0.42 c-0.06 0.2 -0.1 0.42 -0.1 0.64 c0 0.04 0 0.16 0.18 0.34 c0.2 0.18 0.46 0.36 0.8 0.48 c0.4 0.18 0.86 0.32 1.38 0.44 c0.54 0.14 1.1 0.28 1.68 0.42 s1.16 0.3 1.72 0.48 c0.6 0.2 1.16 0.46 1.64 0.78 z    M289.78562500000004 5 c0.38 0 0.7 0.32 0.7 0.7 l0 13.28 c0 0.38 -0.32 0.7 -0.7 0.7 l-1.5 0 c-0.38 0 -0.7 -0.32 -0.7 -0.7 l0 -13.28 c0 -0.38 0.32 -0.7 0.7 -0.7 l1.5 0 z M310.00125 5 c0.38 0 0.7 0.32 0.7 0.7 l0 13.28 c0 0.38 -0.32 0.7 -0.7 0.7 l-1.76 0 c-0.22 0 -0.42 -0.1 -0.56 -0.28 l-6.94 -9.5 l0 9.08 c0 0.38 -0.32 0.7 -0.7 0.7 l-1.5 0 c-0.38 0 -0.7 -0.32 -0.7 -0.7 l0 -13.28 c0 -0.38 0.32 -0.7 0.7 -0.7 l1.74 0 c0.22 0 0.44 0.1 0.56 0.28 l6.96 9.46 l0 -9.04 c0 -0.38 0.3 -0.7 0.68 -0.7 l1.52 0 z M330.216875 5 c0.38 0 0.7 0.32 0.7 0.7 l0 13.28 c0 0.38 -0.32 0.7 -0.7 0.7 l-1.76 0 c-0.22 0 -0.42 -0.1 -0.56 -0.28 l-6.94 -9.5 l0 9.08 c0 0.38 -0.32 0.7 -0.7 0.7 l-1.5 0 c-0.38 0 -0.7 -0.32 -0.7 -0.7 l0 -13.28 c0 -0.38 0.32 -0.7 0.7 -0.7 l1.74 0 c0.22 0 0.44 0.1 0.56 0.28 l6.96 9.46 l0 -9.04 c0 -0.38 0.3 -0.7 0.68 -0.7 l1.52 0 z M344.87250000000006 5 c2.16 0 3.98 0.74 5.38 2.2 c1.36 1.42 2.06 3.2 2.06 5.3 s-0.7 3.88 -2.06 5.3 c-1.4 1.46 -3.22 2.2 -5.38 2.2 s-3.98 -0.74 -5.38 -2.2 c-1.36 -1.42 -2.06 -3.2 -2.06 -5.3 s0.7 -3.88 2.06 -5.3 c1.4 -1.46 3.22 -2.2 5.38 -2.2 z M344.87250000000006 17.14 c1.4 0 2.48 -0.44 3.32 -1.32 c0.82 -0.86 1.22 -1.96 1.22 -3.32 s-0.4 -2.44 -1.22 -3.32 c-0.84 -0.88 -1.92 -1.32 -3.32 -1.32 s-2.48 0.44 -3.32 1.32 c-0.82 0.88 -1.22 1.96 -1.22 3.32 s0.4 2.46 1.22 3.32 c0.84 0.88 1.92 1.32 3.32 1.32 z M370.46812500000004 5 c0.22 0 0.44 0.12 0.58 0.3 c0.12 0.2 0.16 0.44 0.06 0.66 l-5.38 13.28 c-0.1 0.26 -0.36 0.44 -0.64 0.44 l-1.72 0 c-0.3 0 -0.54 -0.18 -0.66 -0.44 l-5.38 -13.28 c-0.08 -0.22 -0.06 -0.46 0.08 -0.66 c0.12 -0.18 0.34 -0.3 0.58 -0.3 l1.64 0 c0.28 0 0.54 0.18 0.64 0.44 l3.96 9.94 l3.94 -9.94 c0.12 -0.26 0.36 -0.44 0.66 -0.44 l1.64 0 z M384.3237500000001 5.42 l5.6 13.22 c0.06 0.1 0.1 0.22 0.1 0.34 c0 0.38 -0.3 0.7 -0.7 0.7 l0 0 l-1.66 0 c-0.28 0 -0.54 -0.16 -0.64 -0.42 l-1.46 -3.44 l-5.66 0 l-1.44 3.44 c-0.1 0.26 -0.36 0.42 -0.64 0.42 l-1.66 0 c-0.24 0 -0.46 -0.12 -0.58 -0.32 c-0.14 -0.18 -0.16 -0.44 -0.06 -0.64 l5.64 -13.3 c0.1 -0.26 0.36 -0.42 0.64 -0.42 l1.88 0 c0.28 0 0.54 0.16 0.64 0.42 z M382.74375000000003 9.06 l-1.66 3.98 l3.32 0 z M408.019375 5 c0.38 0 0.7 0.32 0.7 0.7 l0 13.28 c0 0.38 -0.32 0.7 -0.7 0.7 l-1.76 0 c-0.22 0 -0.42 -0.1 -0.56 -0.28 l-6.94 -9.5 l0 9.08 c0 0.38 -0.32 0.7 -0.7 0.7 l-1.5 0 c-0.38 0 -0.7 -0.32 -0.7 -0.7 l0 -13.28 c0 -0.38 0.32 -0.7 0.7 -0.7 l1.74 0 c0.22 0 0.44 0.1 0.56 0.28 l6.96 9.46 l0 -9.04 c0 -0.38 0.3 -0.7 0.68 -0.7 l1.52 0 z M426.21500000000003 5 c0.38 0 0.68 0.32 0.68 0.7 l0 1.44 c0 0.38 -0.3 0.7 -0.68 0.7 l-3.94 0 l0 11.14 c0 0.38 -0.32 0.7 -0.7 0.7 l-1.5 0 c-0.4 0 -0.7 -0.32 -0.7 -0.7 l0 -11.14 l-3.94 0 c-0.38 0 -0.7 -0.32 -0.7 -0.7 l0 -1.44 c0 -0.38 0.32 -0.7 0.7 -0.7 l10.78 0 z M443.370625 5 c0.4 0 0.7 0.32 0.7 0.7 l0 1.44 c0 0.38 -0.3 0.7 -0.7 0.7 l-7.56 0 l0 3.06 l6.68 0 c0.4 0 0.7 0.32 0.7 0.7 l0 1.46 c0 0.38 -0.3 0.7 -0.7 0.7 l-6.68 0 l0 3.08 l7.56 0 c0.4 0 0.7 0.32 0.7 0.7 l0 1.44 c0 0.38 -0.3 0.7 -0.7 0.7 l-9.76 0 c-0.38 0 -0.7 -0.32 -0.7 -0.7 l0 -13.28 c0 -0.38 0.32 -0.7 0.7 -0.7 l9.76 0 z M460.30625000000003 12.42 c1.12 0.72 1.74 1.78 1.74 3.06 c0 1.48 -0.58 2.62 -1.7 3.42 c-1.04 0.72 -2.48 1.1 -4.26 1.1 c-2.02 0 -3.6 -0.44 -4.7 -1.32 c-1.02 -0.82 -1.6 -1.98 -1.74 -3.44 c-0.02 -0.2 0.04 -0.4 0.18 -0.54 s0.32 -0.22 0.52 -0.22 l1.56 0 c0.38 0 0.68 0.28 0.7 0.64 c0.04 0.68 0.34 1.16 0.98 1.54 c0.6 0.34 1.46 0.52 2.52 0.52 c3.04 0 3.04 -1.2 3.04 -1.64 c0 -0.32 -0.12 -0.52 -0.38 -0.7 c-0.38 -0.26 -0.88 -0.48 -1.48 -0.66 c-0.66 -0.2 -1.38 -0.38 -2.14 -0.56 c-0.82 -0.18 -1.6 -0.42 -2.3 -0.7 c-0.76 -0.32 -1.42 -0.72 -1.92 -1.24 c-0.58 -0.58 -0.88 -1.36 -0.88 -2.3 c0 -1.3 0.5 -2.38 1.5 -3.2 c0.96 -0.78 2.36 -1.18 4.2 -1.18 s3.3 0.44 4.36 1.32 c0.98 0.8 1.52 1.86 1.58 3.14 c0.02 0.18 -0.06 0.38 -0.18 0.52 c-0.14 0.12 -0.32 0.2 -0.5 0.2 l-1.56 0 c-0.34 0 -0.64 -0.26 -0.68 -0.6 c-0.06 -0.52 -0.3 -1.24 -1.62 -1.6 c-0.4 -0.12 -0.92 -0.18 -1.52 -0.18 s-1.1 0.06 -1.48 0.2 c-0.38 0.12 -0.66 0.26 -0.84 0.42 c-0.16 0.14 -0.26 0.28 -0.3 0.42 c-0.06 0.2 -0.1 0.42 -0.1 0.64 c0 0.04 0 0.16 0.18 0.34 c0.2 0.18 0.46 0.36 0.8 0.48 c0.4 0.18 0.86 0.32 1.38 0.44 c0.54 0.14 1.1 0.28 1.68 0.42 s1.16 0.3 1.72 0.48 c0.6 0.2 1.16 0.46 1.64 0.78 z "/></g><g id="SvgjsG1165" rel="mainfill" name="symbol" feature="symbol" xmlns:name="symbol_mainfill" fill="#bee42c" transform="translate(76.61197222222222, -1.841396638027824) scale(1.2776055555555554)"><g xmlns="http://www.w3.org/2000/svg"><g><path d="M69.8,55.564c2.291,0,4.091,1.8,4.091,4.091c0,2.236-1.8,4.091-4.091,4.091H53.927c-2.236,0-4.091-1.855-4.091-4.091    c0-2.291,1.855-4.091,4.091-4.091H69.8z"/><path d="M42.745,47.109c1.582,1.582,1.582,4.2,0,5.782l-9.655,9.655c-1.582,1.582-4.145,1.582-5.782,0    c-1.582-1.582-1.582-4.2,0-5.782L34.073,50l-6.764-6.709c-1.582-1.636-1.582-4.2,0-5.782c1.636-1.636,4.2-1.636,5.782,0    L42.745,47.109z"/><path d="M86.818,71.327V28.673c0-4.036-3.273-7.309-7.309-7.309H20.491c-4.036,0-7.255,3.273-7.309,7.309v42.655    c0.055,4.036,3.273,7.309,7.309,7.309h59.018C83.545,78.636,86.818,75.364,86.818,71.327z M95,28.673v42.655    c0,8.564-6.927,15.491-15.491,15.491H20.491C11.927,86.818,5,79.891,5,71.327V28.673c0-8.564,6.927-15.491,15.491-15.491h59.018    C88.073,13.182,95,20.109,95,28.673z"/></g></g></g>
			</g>
		</svg>
	